<?xml version="1.0" standalone="no"?>
<!DOCTYPE svg PUBLIC "-//W3C//DTD SVG 20010904//EN"
 "http://www.w3.org/TR/2001/REC-SVG-20010904/DTD/svg10.dtd">
<svg version="1.0" xmlns="http://www.w3.org/2000/svg"
 width="50.000000pt" height="50.000000pt" viewBox="0 0 857.000000 533.000000"
 preserveAspectRatio="xMidYMid meet">

<g transform="translate(0.000000,533.000000) scale(0.100000,-0.100000)"
fill="#000000" stroke="none">
<path d="M3320 4000 c0 -731 -3 -1330 -7 -1330 -5 0 -22 28 -38 63 -34 69
-1284 2492 -1315 2547 l-19 35 -233 2 -233 3 -155 -302 c-85 -166 -203 -394
-262 -507 -60 -113 -123 -235 -140 -271 -18 -36 -35 -67 -38 -70 -3 -3 -6 -9
-7 -15 -1 -5 -21 -46 -46 -90 -24 -44 -92 -174 -152 -290 -59 -115 -138 -268
-175 -340 -270 -522 -490 -952 -490 -958 0 -4 126 -7 279 -7 l280 0 69 133
c38 72 116 222 172 332 56 110 142 277 190 370 48 94 134 260 190 370 56 110
135 263 175 340 40 77 132 256 204 398 73 141 136 257 139 257 7 0 732 -1401
732 -1414 0 -3 -241 -7 -536 -8 l-536 -3 -44 -85 c-24 -47 -77 -149 -118 -227
l-74 -143 777 0 776 0 58 -118 c33 -64 70 -136 83 -159 l25 -43 514 0 515 0 0
363 0 363 463 480 464 479 -464 3 -463 2 0 295 0 295 560 0 c661 0 701 -4 827
-91 133 -92 213 -254 213 -430 0 -134 -32 -226 -106 -304 -204 -216 -385 -405
-596 -624 l-247 -256 298 -3 299 -2 48 -53 c26 -28 147 -157 268 -284 l219
-233 348 0 348 0 12 23 c12 23 21 36 266 412 82 127 203 312 268 413 65 100
123 182 130 182 6 0 35 -32 65 -71 30 -39 105 -133 165 -208 61 -75 136 -170
168 -211 31 -41 93 -120 138 -175 44 -55 126 -157 182 -227 l102 -128 353 0
353 0 -68 88 c-37 48 -115 146 -173 219 -58 72 -159 200 -225 283 -239 301
-397 498 -527 659 -73 90 -141 177 -151 193 l-17 29 62 75 c35 42 128 154 208
249 80 95 204 244 275 330 72 86 168 203 215 259 47 55 128 153 180 216 51 63
120 145 153 183 l59 67 -356 0 -355 0 -59 -77 c-33 -43 -102 -130 -153 -195
-52 -64 -146 -182 -209 -263 -151 -191 -340 -430 -462 -583 -54 -67 -101 -129
-104 -137 -20 -51 -24 56 -24 626 l0 629 -270 0 -270 0 0 -1396 c0 -1028 -3
-1395 -11 -1392 -6 2 -172 170 -368 373 l-357 369 98 95 c129 123 186 200 259
346 83 168 110 278 116 470 6 171 -8 269 -58 413 -95 272 -298 502 -535 608
-33 15 -82 37 -110 50 -28 12 -96 32 -151 43 -98 20 -133 21 -977 21 l-876 0
0 -1330z"/>
<path d="M1557 1889 c-51 -12 -109 -43 -153 -81 -146 -128 -153 -381 -15 -531
93 -101 250 -125 404 -62 12 5 17 2 17 -9 0 -13 12 -16 60 -16 l60 0 0 180 0
180 -70 0 -69 0 -3 -97 -3 -97 -32 -18 c-52 -31 -124 -34 -175 -8 -89 46 -127
106 -128 202 0 65 10 97 47 151 63 92 213 108 314 35 l42 -30 46 46 c38 38 44
49 35 64 -17 27 -112 80 -166 91 -58 13 -157 13 -211 0z"/>
<path d="M4338 1881 c-31 -10 -72 -28 -91 -40 -122 -75 -185 -251 -142 -396
33 -116 91 -185 195 -234 48 -23 68 -26 160 -26 93 0 112 3 162 27 79 37 140
96 174 171 26 55 29 73 29 162 -1 88 -4 107 -28 156 -33 69 -100 132 -174 166
-76 35 -203 41 -285 14z m219 -138 c120 -56 153 -251 60 -352 -95 -102 -230
-99 -320 8 -44 53 -58 135 -36 216 34 126 173 185 296 128z"/>
<path d="M2750 1541 l0 -351 80 0 80 0 0 100 0 100 73 -1 72 0 64 -100 63 -99
85 0 85 0 -14 23 c-9 12 -42 62 -76 111 l-60 89 36 27 c73 54 101 106 102 194
1 105 -49 185 -142 227 -49 22 -69 24 -250 27 l-198 4 0 -351z m370 201 c42
-21 60 -53 60 -109 0 -85 -62 -122 -207 -123 l-63 0 0 125 0 125 88 0 c63 0
97 -5 122 -18z"/>
<path d="M5612 1638 c5 -271 8 -288 60 -366 69 -100 235 -123 348 -47 l50 34
0 -35 0 -34 75 0 75 0 0 350 0 350 -74 0 -74 0 -4 -227 c-3 -256 -11 -289 -77
-327 -68 -39 -144 -21 -195 48 -20 26 -21 43 -24 267 l-3 239 -80 0 -81 0 4
-252z"/>
<path d="M7060 1540 l0 -350 80 0 80 0 0 100 0 100 103 0 c164 0 250 38 299
133 32 63 31 166 -3 232 -54 105 -140 135 -391 135 l-168 0 0 -350z m367 201
c53 -25 73 -77 54 -141 -19 -63 -55 -80 -168 -80 l-93 0 0 120 0 120 83 0 c59
0 94 -6 124 -19z"/>
<path d="M1345 748 c-7 -18 -41 -96 -74 -172 -34 -76 -61 -140 -61 -142 0 -2
8 -4 19 -4 13 0 25 15 39 50 l21 50 89 0 89 0 21 -50 c12 -30 27 -50 36 -50 9
0 16 3 16 8 0 4 -32 82 -72 175 -56 132 -75 167 -90 167 -12 0 -24 -12 -33
-32z m76 -101 l37 -92 -75 -3 c-42 -2 -77 -1 -79 1 -5 5 68 187 75 187 3 0 22
-42 42 -93z"/>
<path d="M3512 613 c-40 -93 -72 -171 -72 -175 0 -5 7 -8 16 -8 9 0 24 20 36
50 l21 50 89 0 89 0 21 -50 c14 -35 26 -50 39 -50 11 0 19 1 19 3 0 2 -33 79
-73 173 -56 129 -78 170 -93 172 -16 2 -31 -25 -92 -165z m132 35 c19 -51 34
-93 32 -95 -2 -2 -37 -3 -79 -1 l-75 3 37 92 c20 51 39 93 42 93 4 0 23 -41
43 -92z"/>
<path d="M5610 605 c0 -168 1 -175 20 -175 19 0 20 7 20 93 l1 92 32 -35 c17
-20 56 -62 84 -93 39 -43 59 -58 75 -55 19 3 10 15 -67 97 l-90 93 85 79 c74
68 82 78 60 79 -18 0 -47 -22 -102 -77 l-78 -78 0 78 c0 70 -2 77 -20 77 -19
0 -20 -7 -20 -175z"/>
<path d="M1590 600 c0 -163 1 -170 20 -170 19 0 20 7 20 142 l0 141 100 -141
c138 -195 140 -194 140 28 0 143 -2 170 -15 170 -12 0 -15 -25 -17 -146 l-3
-147 -100 146 c-78 115 -105 147 -122 147 -23 0 -23 0 -23 -170z"/>
<path d="M2068 761 c-71 -23 -118 -89 -118 -165 0 -51 40 -116 85 -140 46 -24
165 -29 203 -8 19 11 22 21 22 82 l0 70 -60 0 c-68 0 -82 -17 -17 -22 l42 -3
3 -47 c4 -54 -8 -65 -80 -74 -166 -21 -221 215 -66 280 43 17 50 18 90 4 67
-23 70 -24 75 -12 10 27 -123 53 -179 35z"/>
<path d="M2386 613 c-38 -87 -71 -164 -73 -170 -3 -8 3 -13 14 -13 13 0 25 15
40 50 l21 50 85 0 85 0 18 -50 c13 -36 23 -50 37 -50 13 0 17 5 13 16 -3 8
-36 85 -72 170 -49 113 -71 154 -83 154 -13 0 -36 -42 -85 -157z m91 -61 c-38
-2 -72 -1 -74 2 -3 3 7 36 22 73 15 37 32 79 37 93 9 23 13 17 47 -70 l37 -95
-69 -3z"/>
<path d="M2680 600 l0 -172 88 4 c101 5 142 23 180 79 20 29 23 44 20 96 -7
112 -60 155 -200 161 l-88 4 0 -172z m188 123 c48 -36 66 -70 66 -123 0 -86
-58 -138 -164 -147 l-60 -6 0 145 c0 80 3 148 8 152 13 14 124 -2 150 -21z"/>
<path d="M3820 600 c0 -163 1 -170 20 -170 19 0 20 7 20 142 l0 141 100 -141
c138 -195 140 -194 140 28 0 143 -2 170 -15 170 -12 0 -15 -25 -17 -146 l-3
-147 -100 146 c-78 115 -105 147 -122 147 -23 0 -23 0 -23 -170z"/>
<path d="M4298 761 c-71 -23 -118 -89 -118 -165 0 -51 40 -116 85 -140 46 -24
165 -29 203 -8 19 11 22 21 22 82 l0 70 -60 0 c-68 0 -82 -17 -17 -22 l42 -3
3 -47 c4 -54 -8 -65 -80 -74 -166 -21 -221 215 -66 280 43 17 50 18 90 4 67
-23 70 -24 75 -12 10 27 -123 53 -179 35z"/>
<path d="M4671 748 c-5 -13 -37 -86 -70 -162 -34 -77 -61 -143 -61 -148 0 -4
6 -8 14 -8 7 0 23 23 35 50 l22 51 86 -3 85 -3 18 -45 c12 -31 24 -46 39 -48
20 -3 19 1 -15 80 -20 46 -52 122 -72 171 -26 65 -40 87 -54 87 -10 0 -23 -10
-27 -22z m63 -102 c20 -50 36 -91 36 -93 0 -2 -34 -3 -76 -3 -57 0 -75 3 -71
13 3 6 20 49 38 95 18 45 33 81 35 80 1 -2 18 -43 38 -92z"/>
<path d="M4870 760 c0 -5 25 -10 55 -10 l55 0 0 -160 c0 -134 2 -160 15 -160
12 0 15 27 17 158 l3 157 58 3 c31 2 57 7 57 12 0 6 -55 10 -130 10 -80 0
-130 -4 -130 -10z"/>
<path d="M6011 748 c-5 -13 -37 -86 -70 -162 -34 -77 -61 -143 -61 -148 0 -4
6 -8 14 -8 7 0 23 23 35 50 l22 51 86 -3 85 -3 18 -45 c12 -31 24 -46 39 -48
20 -3 19 1 -15 80 -20 46 -52 122 -72 171 -26 65 -40 87 -54 87 -10 0 -23 -10
-27 -22z m63 -102 c20 -50 36 -91 36 -93 0 -2 -34 -3 -76 -3 -57 0 -75 3 -71
13 3 6 20 49 38 95 18 45 33 81 35 80 1 -2 18 -43 38 -92z"/>
<path d="M6284 756 c-33 -15 -44 -33 -44 -72 0 -43 18 -62 77 -84 71 -27 93
-45 93 -80 0 -55 -69 -85 -124 -52 -42 25 -72 13 -32 -13 59 -39 159 -26 186
24 28 54 2 99 -75 127 -86 30 -112 66 -80 111 23 33 69 39 108 14 32 -20 47
-19 47 1 0 13 -65 38 -97 38 -15 -1 -42 -7 -59 -14z"/>
<path d="M6621 748 c-5 -13 -37 -86 -70 -162 -34 -77 -61 -143 -61 -148 0 -4
6 -8 14 -8 7 0 23 23 35 50 l22 51 86 -3 85 -3 18 -45 c12 -31 24 -46 39 -48
20 -3 19 1 -15 80 -20 46 -52 122 -72 171 -26 65 -40 87 -54 87 -10 0 -23 -10
-27 -22z m63 -102 c20 -50 36 -91 36 -93 0 -2 -34 -3 -76 -3 -57 0 -75 3 -71
13 3 6 20 49 38 95 18 45 33 81 35 80 1 -2 18 -43 38 -92z"/>
<path d="M6850 601 c0 -163 1 -171 20 -171 18 0 20 8 22 132 l3 132 56 -129
c32 -73 62 -130 70 -130 7 0 37 56 68 127 31 69 59 130 64 134 4 4 7 -54 7
-129 0 -115 2 -137 15 -137 13 0 15 26 15 170 l0 170 -23 0 c-20 0 -30 -17
-81 -140 -32 -77 -61 -140 -65 -140 -3 0 -31 62 -62 138 -50 125 -58 137 -82
140 l-27 3 0 -170z"/>
<path d="M7381 748 c-5 -13 -37 -86 -70 -162 -34 -77 -61 -143 -61 -148 0 -4
6 -8 14 -8 7 0 23 23 35 50 l22 51 86 -3 85 -3 18 -45 c12 -31 24 -46 39 -48
20 -3 19 1 -15 80 -20 46 -52 122 -72 171 -26 65 -40 87 -54 87 -10 0 -23 -10
-27 -22z m63 -102 c20 -50 36 -91 36 -93 0 -2 -34 -3 -76 -3 -57 0 -75 3 -71
13 3 6 20 49 38 95 18 45 33 81 35 80 1 -2 18 -43 38 -92z"/>
<path d="M3150 595 l0 -65 65 0 65 0 0 65 0 65 -65 0 -65 0 0 -65z"/>
<path d="M5280 595 l0 -65 65 0 65 0 0 65 0 65 -65 0 -65 0 0 -65z"/>
</g>
</svg>
