<?xml version="1.0" standalone="no"?>
<!DOCTYPE svg PUBLIC "-//W3C//DTD SVG 20010904//EN"
 "http://www.w3.org/TR/2001/REC-SVG-20010904/DTD/svg10.dtd">
<svg version="1.0" xmlns="http://www.w3.org/2000/svg"
 width="50.000000pt" height="50.000000pt" viewBox="0 50 571.000000 276.000000"
 preserveAspectRatio="xMidYMid meet">

<g transform="translate(0.000000,276.000000) scale(0.100000,-0.100000)"
fill="#181818" stroke="none">
<path d="M2210 1873 c0 -744 -2 -884 -13 -868 -8 11 -69 128 -137 260 -67 132
-151 294 -185 360 -34 66 -104 201 -155 300 -51 99 -123 239 -160 310 -37 72
-112 217 -166 323 l-99 192 -158 -2 -158 -3 -90 -175 c-264 -513 -317 -615
-374 -725 -77 -148 -191 -370 -320 -620 -54 -104 -118 -228 -142 -275 l-44
-85 182 -3 c101 -1 186 1 189 5 4 5 50 91 102 193 83 160 451 873 601 1163 27
53 53 97 56 97 3 0 46 -78 94 -173 48 -94 122 -237 163 -317 42 -80 111 -214
155 -298 53 -103 75 -154 66 -157 -6 -3 -169 -6 -360 -7 l-348 -3 -74 -140
c-41 -77 -74 -143 -75 -147 0 -5 232 -8 515 -8 l515 0 52 -105 53 -105 342 0
343 0 0 240 0 240 309 318 309 317 -309 3 -309 2 0 201 0 200 398 -3 c344 -3
404 -6 449 -21 98 -33 174 -109 204 -205 18 -61 18 -206 0 -252 -16 -38 -127
-161 -415 -459 l-190 -196 196 -3 196 -2 98 -108 c54 -59 134 -144 178 -189
l80 -83 230 0 231 0 130 200 c196 302 315 484 320 488 2 2 34 -36 72 -84 37
-48 84 -106 103 -129 19 -23 112 -139 205 -258 l170 -216 233 0 c184 -1 232 2
226 12 -11 16 -107 141 -115 147 -3 3 -30 37 -60 75 -30 39 -71 91 -91 115
-20 25 -111 140 -203 255 -91 116 -183 230 -204 255 -20 25 -50 62 -65 82
l-28 38 97 117 c53 65 142 173 198 240 56 67 161 193 234 280 72 87 154 185
181 218 l51 60 -227 3 -227 3 -35 -39 c-19 -21 -100 -121 -180 -222 -80 -101
-183 -232 -228 -290 -46 -58 -116 -146 -155 -197 -40 -50 -75 -92 -79 -92 -5
-1 -8 188 -8 419 l0 420 -180 0 -180 0 -2 -931 -3 -931 -244 251 -244 252 63
56 c226 205 314 518 223 803 -35 111 -86 193 -178 285 -73 73 -106 99 -175
133 -160 79 -131 76 -812 80 l-608 3 0 -888z"/>
<path d="M1032 470 c-52 -12 -109 -56 -139 -107 -24 -42 -28 -58 -28 -128 0
-69 4 -86 28 -127 51 -88 174 -130 275 -95 23 8 42 11 42 6 0 -5 18 -9 40 -9
l40 0 0 120 0 120 -45 0 -45 0 0 -64 c0 -63 -1 -64 -34 -80 -65 -31 -141 -11
-176 46 -30 48 -24 146 10 184 57 60 132 71 195 28 l38 -26 31 32 31 31 -32
29 c-51 46 -141 61 -231 40z"/>
<path d="M2886 468 c-23 -6 -59 -30 -87 -57 -90 -87 -100 -215 -25 -314 51
-67 105 -92 201 -92 69 0 87 4 126 27 154 90 156 324 6 413 -53 30 -157 41
-221 23z m186 -126 c35 -38 38 -45 38 -102 0 -57 -3 -63 -39 -103 -37 -39 -42
-41 -95 -41 -65 0 -101 21 -128 75 -36 69 -13 153 52 197 28 19 44 23 84 19
42 -4 55 -10 88 -45z"/>
<path d="M1830 240 l0 -230 55 0 55 0 0 65 0 65 48 0 c47 -1 47 -1 87 -63 l41
-62 58 -3 57 -3 -48 71 -48 72 42 43 c41 41 43 45 43 105 0 78 -24 120 -84
149 -36 18 -61 21 -174 21 l-132 0 0 -230z m266 116 c30 -34 30 -67 1 -101
-19 -23 -33 -28 -90 -32 l-67 -6 0 88 0 87 66 -4 c58 -4 70 -8 90 -32z"/>
<path d="M3740 317 c0 -188 13 -243 67 -284 31 -24 46 -28 104 -28 54 0 73 4
98 22 37 28 41 28 41 3 0 -17 7 -20 50 -20 l50 0 0 230 0 230 -50 0 -50 0 0
-126 c0 -199 -20 -246 -106 -248 -38 -1 -50 4 -70 27 -23 27 -24 33 -24 188
l0 159 -55 0 -55 0 0 -153z"/>
<path d="M4700 240 l0 -230 55 0 55 0 0 65 0 65 80 0 c88 0 119 11 161 57 40
42 54 96 39 146 -31 105 -76 127 -258 127 l-132 0 0 -230z m266 116 c30 -34
30 -68 2 -101 -19 -21 -35 -27 -90 -32 l-68 -6 0 88 0 87 66 -4 c58 -4 70 -8
90 -32z"/>
</g>
</svg>
